<svg xmlns="http://www.w3.org/2000/svg" viewBox="0 0 900 620"><defs><linearGradient id="sky" x1="0" x2="0" y1="0" y2="1"><stop offset="0" stop-color="#232323"/><stop offset="1" stop-color="#090909"/></linearGradient><linearGradient id="lava" x1="0" x2="1"><stop offset="0" stop-color="#ff7a18"/><stop offset="1" stop-color="#ffcf5b"/></linearGradient></defs><rect width="900" height="620" fill="url(#sky)"/><path d="M0 390 130 250l116 106 140-154 128 150 92-82 294 190v160H0z" fill="#151515"/><path d="M0 485c120-58 188-42 282-13 113 35 204 32 310-8 120-45 207-22 308 24v132H0z" fill="#0a0a0a"/><path d="M44 518c156-52 260 56 419 0 143-51 246-34 385 24" fill="none" stroke="#ff7a18" stroke-width="18" opacity=".45"/><path d="M98 106h88v302H98zM714 88h72v338h-72z" fill="#101010" stroke="#3a3a3a" stroke-width="8"/><path d="M71 158h144M690 142h121M88 248h112M696 250h104" stroke="#ff7a18" stroke-width="8"/><circle cx="444" cy="126" r="46" fill="url(#lava)" opacity=".9"/><path d="M412 126h64M444 94v64" stroke="#080808" stroke-width="12" stroke-linecap="round"/></svg>