<svg xmlns="http://www.w3.org/2000/svg" viewBox="0 0 720 180" role="img" aria-label="RevMine Empire Excavation logo"><rect width="720" height="180" rx="20" fill="#080808"/><path d="M42 132V45h95c35 0 54 14 54 42 0 18-9 31-26 37l33 8v20h-55l-27-31H92v31H42z" fill="#fff"/><path d="M92 82h43c8 0 13-3 13-10s-5-10-13-10H92v20z" fill="#080808"/><path d="M210 45h68l38 67 38-67h67l-73 107h-64L210 45z" fill="#ff7a18"/><path d="M424 132V45h56l46 41 46-41h56v107h-51V94l-36 33h-22l-36-33v58h-55z" fill="#fff"/><path d="M54 157h604" stroke="#ff7a18" stroke-width="10" stroke-linecap="round"/><text x="360" y="34" text-anchor="middle" font-family="Arial Black, Arial" font-size="24" fill="#ffb03a" letter-spacing="2">EMPIRE EXCAVATION</text></svg>